<svg xmlns="http://www.w3.org/2000/svg" xmlns:xlink="http://www.w3.org/1999/xlink" viewBox="0 0 74.37 74.37"><defs><style>.cls-1{fill:none;}.cls-2{clip-path:url(#clip-path);}.cls-3{fill:#0098c1;}</style><clipPath id="clip-path" transform="translate(0)"><polygon class="cls-1" points="74.37 0 0 74.37 74.37 74.37 74.37 0"/></clipPath></defs><title>Asset 11</title><g id="Layer_2" data-name="Layer 2"><g id="Graphics_-_Lower" data-name="Graphics - Lower"><g class="cls-2"><rect class="cls-3" x="42.5" width="10.62" height="10.63"/><rect class="cls-3" x="21.25" y="21.25" width="10.62" height="10.63"/><rect class="cls-3" x="31.87" y="10.63" width="10.63" height="10.62"/><rect class="cls-3" x="42.5" y="21.25" width="10.62" height="10.63"/><rect class="cls-3" x="53.12" y="10.63" width="10.63" height="10.62"/><rect class="cls-3" x="10.62" y="31.88" width="10.63" height="10.62"/><rect class="cls-3" x="31.87" y="31.88" width="10.63" height="10.62"/><rect class="cls-3" x="53.12" y="31.88" width="10.63" height="10.62"/><rect class="cls-3" y="42.5" width="10.62" height="10.63"/><rect class="cls-3" x="21.25" y="42.5" width="10.62" height="10.63"/><rect class="cls-3" y="63.75" width="10.62" height="10.62"/><rect class="cls-3" x="10.62" y="53.12" width="10.63" height="10.63"/><rect class="cls-3" x="21.25" y="63.75" width="10.62" height="10.62"/><rect class="cls-3" x="31.87" y="53.12" width="10.63" height="10.63"/><rect class="cls-3" x="42.5" y="63.75" width="10.62" height="10.62"/><rect class="cls-3" x="42.5" y="42.5" width="10.62" height="10.63"/><rect class="cls-3" x="53.12" y="53.12" width="10.63" height="10.63"/><rect class="cls-3" x="63.75" width="10.63" height="10.63"/><rect class="cls-3" x="63.75" y="21.25" width="10.63" height="10.63"/><rect class="cls-3" x="63.75" y="42.5" width="10.63" height="10.63"/><rect class="cls-3" x="63.75" y="63.75" width="10.63" height="10.62"/></g></g></g></svg>