<svg xmlns="http://www.w3.org/2000/svg" viewBox="0 0 372.12 520.86"><defs><style>.cls-1{fill:none;stroke:#0098c1;stroke-miterlimit:10;stroke-width:0.25px;}</style></defs><title>Asset 16</title><g id="Layer_2" data-name="Layer 2"><g id="Grid"><line class="cls-1" x1="372" y1="0.13" x2="0.13" y2="0.13"/><line class="cls-1" x1="372" y1="24.92" x2="0.13" y2="24.92"/><line class="cls-1" x1="347.2" y1="520.74" x2="347.2" y2="0.13"/><line class="cls-1" x1="371.99" y1="520.74" x2="371.99" y2="0.13"/><line class="cls-1" x1="322.41" y1="520.74" x2="322.41" y2="0.13"/><line class="cls-1" x1="297.62" y1="520.74" x2="297.62" y2="0.13"/><line class="cls-1" x1="248.04" y1="520.74" x2="248.04" y2="0.13"/><line class="cls-1" x1="272.83" y1="520.74" x2="272.83" y2="0.13"/><line class="cls-1" x1="223.25" y1="520.74" x2="223.25" y2="0.13"/><line class="cls-1" x1="198.46" y1="520.74" x2="198.46" y2="0.13"/><line class="cls-1" x1="148.87" y1="520.74" x2="148.87" y2="0.13"/><line class="cls-1" x1="173.66" y1="520.74" x2="173.66" y2="0.13"/><line class="cls-1" x1="124.08" y1="520.74" x2="124.08" y2="0.13"/><line class="cls-1" x1="99.29" y1="520.74" x2="99.29" y2="0.13"/><line class="cls-1" x1="49.71" y1="520.74" x2="49.71" y2="0.13"/><line class="cls-1" x1="74.5" y1="520.74" x2="74.5" y2="0.13"/><line class="cls-1" x1="24.92" y1="520.74" x2="24.92" y2="0.13"/><line class="cls-1" x1="0.13" y1="520.74" x2="0.13" y2="0.13"/><line class="cls-1" x1="372" y1="49.71" x2="0.13" y2="49.71"/><line class="cls-1" x1="372" y1="74.5" x2="0.13" y2="74.5"/><line class="cls-1" x1="372" y1="99.29" x2="0.13" y2="99.29"/><line class="cls-1" x1="372" y1="148.87" x2="0.13" y2="148.87"/><line class="cls-1" x1="372" y1="173.66" x2="0.13" y2="173.66"/><line class="cls-1" x1="372" y1="198.45" x2="0.13" y2="198.45"/><line class="cls-1" x1="372" y1="223.24" x2="0.13" y2="223.24"/><line class="cls-1" x1="372" y1="248.04" x2="0.13" y2="248.04"/><line class="cls-1" x1="372" y1="124.08" x2="0.13" y2="124.08"/><line class="cls-1" x1="372" y1="272.83" x2="0.13" y2="272.83"/><line class="cls-1" x1="372" y1="297.62" x2="0.13" y2="297.62"/><line class="cls-1" x1="372" y1="322.41" x2="0.13" y2="322.41"/><line class="cls-1" x1="372" y1="347.2" x2="0.13" y2="347.2"/><line class="cls-1" x1="372" y1="371.99" x2="0.13" y2="371.99"/><line class="cls-1" x1="372" y1="421.57" x2="0.13" y2="421.57"/><line class="cls-1" x1="372" y1="446.36" x2="0.13" y2="446.36"/><line class="cls-1" x1="372" y1="471.16" x2="0.13" y2="471.16"/><line class="cls-1" x1="372" y1="495.95" x2="0.13" y2="495.95"/><line class="cls-1" x1="372" y1="520.74" x2="0.13" y2="520.74"/><line class="cls-1" x1="372" y1="396.78" x2="0.13" y2="396.78"/></g></g></svg>