<svg xmlns="http://www.w3.org/2000/svg" xmlns:xlink="http://www.w3.org/1999/xlink" viewBox="0 0 49.58 49.58"><defs><style>.cls-1{fill:none;}.cls-2{isolation:isolate;}.cls-3{clip-path:url(#clip-path);}.cls-4{fill:#fff;}.cls-5{fill:#0098c1;}.cls-6{mix-blend-mode:multiply;}.cls-7{fill:#ff4824;}</style><clipPath id="clip-path" transform="translate(0 0)"><polygon class="cls-1" points="49.58 49.58 0 0 0 49.58 49.58 49.58"/></clipPath></defs><title>Asset 2</title><g class="cls-2"><g id="Layer_2" data-name="Layer 2"><g id="Graphics_-_Lower" data-name="Graphics - Lower"><g class="cls-3"><rect class="cls-4" x="7.08" width="7.08" height="7.08"/><rect class="cls-4" x="14.17" y="7.08" width="7.08" height="7.08"/><rect class="cls-4" x="21.25" y="14.17" width="7.08" height="7.08"/><rect class="cls-4" x="28.33" y="21.25" width="7.08" height="7.08"/><rect class="cls-4" x="35.42" y="28.33" width="7.08" height="7.08"/><rect class="cls-4" x="42.5" y="35.41" width="7.08" height="7.08"/><rect class="cls-5" x="42.5" y="28.33" width="7.08" height="7.08"/><rect class="cls-5" x="28.33" y="14.17" width="7.08" height="7.08"/><rect class="cls-5" x="35.42" y="21.25" width="7.08" height="7.08"/><rect class="cls-5" x="21.25" y="7.08" width="7.08" height="7.08"/><rect class="cls-5" x="14.17" width="7.08" height="7.08"/><g class="cls-6"><rect class="cls-7" x="28.33" y="28.33" width="7.08" height="7.08"/><rect class="cls-7" x="35.42" y="35.41" width="7.08" height="7.08"/><rect class="cls-7" x="21.25" y="21.25" width="7.08" height="7.08"/><rect class="cls-7" x="21.25" y="35.41" width="7.08" height="7.08"/><rect class="cls-7" x="14.17" y="14.17" width="7.08" height="7.08"/><rect class="cls-7" width="7.08" height="7.08"/><rect class="cls-7" x="7.08" y="7.08" width="7.08" height="7.08"/><rect class="cls-7" y="14.17" width="7.08" height="7.08"/><rect class="cls-7" x="7.08" y="21.25" width="7.08" height="7.08"/><rect class="cls-7" y="28.33" width="7.08" height="7.08"/><rect class="cls-7" x="14.17" y="28.33" width="7.08" height="7.08"/><rect class="cls-7" x="7.08" y="35.41" width="7.08" height="7.08"/><rect class="cls-7" x="42.5" y="42.5" width="7.08" height="7.08"/><rect class="cls-7" x="28.33" y="42.5" width="7.08" height="7.08"/><rect class="cls-7" x="14.17" y="42.5" width="7.08" height="7.08"/><rect class="cls-7" y="42.5" width="7.08" height="7.08"/></g></g></g></g></g></svg>