<svg xmlns="http://www.w3.org/2000/svg" xmlns:xlink="http://www.w3.org/1999/xlink" viewBox="0 0 147.68 105.49"><defs><style>.cls-1{fill:none;}.cls-2{clip-path:url(#clip-path);}.cls-3{fill:#fff;}</style><clipPath id="clip-path"><polygon class="cls-1" points="0 73.84 147.68 73.84 73.84 0 0 73.84"/></clipPath></defs><title>Asset 2</title><g id="Layer_2" data-name="Layer 2"><g id="ILLUSTRATION"><g class="cls-2"><rect class="cls-3" x="119.13" y="55.83" width="14.91" height="14.92" transform="translate(-7.68 108.05) rotate(-45)"/><rect class="cls-3" x="119.12" y="76.93" width="14.92" height="14.92" transform="translate(-22.6 114.23) rotate(-45)"/><rect class="cls-3" x="98.03" y="76.93" width="14.92" height="14.92" transform="translate(-28.78 99.31) rotate(-45)"/><rect class="cls-3" x="76.93" y="76.93" width="14.91" height="14.92" transform="translate(-34.96 84.39) rotate(-45)"/><rect class="cls-3" x="55.83" y="76.93" width="14.92" height="14.92" transform="translate(-41.13 69.47) rotate(-45)"/><rect class="cls-3" x="55.84" y="55.84" width="14.91" height="14.92" transform="translate(-26.22 63.29) rotate(-45)"/><rect class="cls-3" x="76.93" y="55.83" width="14.92" height="14.92" transform="translate(-20.04 78.21) rotate(-45)"/><rect class="cls-3" x="98.03" y="55.83" width="14.92" height="14.91" transform="translate(-13.86 93.13) rotate(-45)"/><rect class="cls-3" x="98.03" y="34.73" width="14.91" height="14.92" transform="translate(1.06 86.95) rotate(-45)"/><rect class="cls-3" x="76.93" y="34.74" width="14.92" height="14.92" transform="translate(-5.12 72.03) rotate(-45)"/><rect class="cls-3" x="76.93" y="13.64" width="14.92" height="14.92" transform="translate(9.8 65.85) rotate(-45)"/><rect class="cls-3" x="55.83" y="13.64" width="14.92" height="14.92" transform="translate(3.62 50.93) rotate(-45)"/><rect class="cls-3" x="55.83" y="34.74" width="14.92" height="14.92" transform="translate(-11.3 57.11) rotate(-45)"/><rect class="cls-3" x="34.74" y="34.73" width="14.91" height="14.92" transform="translate(-17.48 42.19) rotate(-45)"/><rect class="cls-3" x="34.74" y="55.83" width="14.92" height="14.92" transform="translate(-32.4 48.38) rotate(-45)"/><rect class="cls-3" x="34.74" y="76.93" width="14.92" height="14.92" transform="translate(-47.31 54.55) rotate(-45)"/><rect class="cls-3" x="13.64" y="76.93" width="14.92" height="14.92" transform="translate(-53.49 39.64) rotate(-45)"/><rect class="cls-3" x="13.64" y="55.83" width="14.92" height="14.92" transform="translate(-38.57 33.46) rotate(-45)"/><rect x="24.19" y="87.48" width="14.92" height="14.92" transform="translate(-57.86 50.19) rotate(-45)"/><rect x="66.38" y="87.48" width="14.92" height="14.92" transform="translate(-45.5 80.02) rotate(-45)"/><rect x="45.29" y="87.48" width="14.92" height="14.92" transform="translate(-51.68 65.1) rotate(-45)"/><rect x="45.28" y="66.38" width="14.92" height="14.92" transform="translate(-36.77 58.92) rotate(-45)"/><rect x="24.19" y="66.38" width="14.91" height="14.92" transform="translate(-42.94 44.01) rotate(-45)"/><rect x="87.48" y="87.48" width="14.91" height="14.92" transform="translate(-39.32 94.94) rotate(-45)"/><rect x="66.38" y="66.38" width="14.91" height="14.92" transform="translate(-30.59 73.84) rotate(-45)"/><rect x="45.29" y="45.28" width="14.91" height="14.92" transform="translate(-21.85 52.74) rotate(-45)"/><rect x="108.57" y="87.48" width="14.92" height="14.92" transform="translate(-33.15 109.86) rotate(-45)"/><rect x="87.48" y="66.38" width="14.92" height="14.91" transform="translate(-24.41 88.76) rotate(-45)"/><rect x="129.68" y="66.38" width="14.91" height="14.92" transform="translate(-12.05 118.59) rotate(-45)"/><rect x="108.58" y="66.38" width="14.92" height="14.92" transform="translate(-18.23 103.68) rotate(-45)"/><rect x="108.58" y="45.29" width="14.91" height="14.91" transform="translate(-3.31 97.5) rotate(-45)"/><rect x="87.48" y="45.28" width="14.92" height="14.92" transform="translate(-9.49 82.58) rotate(-45)"/><rect x="87.48" y="24.19" width="14.92" height="14.92" transform="translate(5.43 76.4) rotate(-45)"/><rect x="66.38" y="45.29" width="14.92" height="14.92" transform="translate(-15.67 67.66) rotate(-45)"/><rect x="66.38" y="24.19" width="14.92" height="14.92" transform="translate(-0.75 61.48) rotate(-45)"/><rect x="3.09" y="66.38" width="14.92" height="14.92" transform="translate(-49.12 29.09) rotate(-45)"/><rect x="24.19" y="45.28" width="14.92" height="14.92" transform="translate(-28.03 37.83) rotate(-45)"/><rect x="45.28" y="24.19" width="14.92" height="14.92" transform="translate(-6.93 46.56) rotate(-45)"/><rect x="66.38" y="3.09" width="14.92" height="14.92" transform="translate(14.17 55.3) rotate(-45)"/></g></g></g></svg>