<svg xmlns="http://www.w3.org/2000/svg" xmlns:xlink="http://www.w3.org/1999/xlink" viewBox="0 0 260.57 260.57"><defs><style>.cls-1{fill:none;}.cls-2{clip-path:url(#clip-path);}.cls-3{fill:#fff;}</style><clipPath id="clip-path"><polygon class="cls-1" points="92.05 80.13 18.21 153.97 165.89 153.97 92.05 80.13"/></clipPath></defs><title>Asset 3</title><g id="Layer_2" data-name="Layer 2"><g id="DATE"><g class="cls-2"><g id="I1D8JG"><path class="cls-3" d="M16.25,119l18-18c8.59,1.44,17,1.32,25.2-2.23,4.32-1.87,9.07-2.73,13.61-4.14,1.56-.48,3-1.23,4.55-1.85a4.24,4.24,0,0,0-3-.42L37.14,98.08,54,81.24c.38-.08.86,0,1.14-.27a59.74,59.74,0,0,1,34.36-12.7c3.7-.19,8.23-1.67,10.72-4.19,5.91-6,10.82-12.91,16.34-19.72-5.36-1.58-7.46,1.82-9.13,5C102.16,59.25,92.63,62.29,82.93,65c-5.09,1.4-10.4,2-15.61,3l7-7c6.36-.48,12.75-.86,17.29-5.74l-11.49-.06L125.36,9.86c3.17,2.33,3.51,4.83.62,7.7-3.09,3.06-6.07,6.24-9.14,9.33q-9.61,9.66-19.26,19.26c2-.71,3.39-2.13,5.08-3.11,4-2.3,7.87-5.06,12.17-6.39,6.84-2.11,14-3.21,20.77-4.68-1.45,4.49-3.53,9.16-8.35,12.33a29.1,29.1,0,0,0-6.65,6.64c-2.62,3.41-4.82,7.15-7.2,10.75l1,.75c2.33-1.85,4.72-3.63,7-5.54,8.14-6.84,15.71-14.37,26-18.21,4.45-1.66,7.23-.79,9.4,3.31-10.11,6-17.53,14.83-23.65,24.55-7,11.07-13,22.72-19.45,34.11-4.42,7.81-9.74,14.42-19.33,16.31a24.07,24.07,0,0,0-8.87,4.1c-4.36,3.07-8.32,6.7-12.45,10.1l.76,1c7.35-5.93,16-9,25-10.53,14.65-2.53,22.75-11.86,27.49-25.15a79.88,79.88,0,0,1,5.12-11.13c4.54-8.4,9-16.87,14.05-25,3.29-5.27,7.51-10,11.5-14.76.57-.68,2.19-.48,3.33-.69-.26,1.13-.25,2.43-.84,3.36-.86,1.37-2.3,2.37-3.22,3.71-5.26,7.64-10.44,15.34-15.65,23,6.63-1.34,12.21-3.68,18-4.73,7.21-1.3,14.68-1.28,20.53-6.34l6.17,6.17c-6.6,3.5-13,6.15-20.47,5.31a32.5,32.5,0,0,0-21.19,4.83c-6.1,3.76-9.7,9.46-12.18,16.83a10.24,10.24,0,0,0,1.41-.9c.46-.51.89-1,1.31-1.58,7.62-9.72,16.62-16.11,30-15.11,9.18.69,18.62.86,27.08-3.19L201.7,86.77a81,81,0,0,1-8.86.72c-8.2-.27-16.4-.57-24.57-1.22s-15.25,1.3-21.43,6.38q-12.5,10.27-24.61,21c-2.7,2.4-4.78,5.5-7.14,8.28,11.77-6.69,21.14-17.37,35.44-18.87l.95,1.31-37.86,30.3c5-1,10.17-2.13,14.37-4.79,10.48-6.62,20.47-14,30.73-21,7.44-5,14.61-10.7,24.14-11.37,8.45-.59,16.88-1.33,25.33-1.92a5.12,5.12,0,0,1,3.37.67c2.65,2.32,5.05,4.92,7.91,7.78-3.87,2.45-7.22,4.8-10.79,6.75s-7.44,3.41-11.09,5.26c-3.49,1.77-6.86,3.77-10.29,5.66a35.35,35.35,0,0,0,10-.71c3.55-.84,7.67-1.36,10.31-3.53,5.12-4.19,11.55-3.94,17.09-6.42a2.91,2.91,0,0,1,2.42.75c2.09,1.89,4,3.94,6.61,6.53l-15.92,5.29-.06,1.57c4.7.8,9.38,2.14,14.11,2.3,7.35.24,14.13,1.22,18.82,7.68l-4.65,4.64c-13.76-1.21-26.47,2.37-38.71,8.3-4.66,2.26-9.44,4.19-15.15,2.59,10.46-3.57,16.53-11.64,22.08-20.28-3.94,2.61-7.57,5.57-11.35,8.32-14.33,10.4-29.4,16.89-47.18,8.69a9.22,9.22,0,0,0-2.78-.62c-1.83-.21-3.67-.33-5.51-.48,17.6,11,36.56,14.63,57.26,11.42l-6.42,5.07a6.83,6.83,0,0,0,4.63-.31c5.06-2.36,9.91-5.22,15.1-7.21,5.91-2.26,12.1-3.78,18.17-5.62l-15.09,15.09c-1.19.24-2.38.44-3.55.73-16.61,4.2-33.46,4.68-49.13-2.26-19.53-8.64-38.72-9.35-58.6-2.59-.9.3-1.87.42-2.78.71-.75.23-1.46.59-2.2.89l.2,1.16c8.84-.2,17.72,0,26.53-.72a54.36,54.36,0,0,1,26.73,4.68c2.91,1.27,5.69,2.83,9.46,4.72-2.86,1.32-4.49,2.45-6.29,2.83-6.41,1.34-12.89,3.47-19.32,3.38-10.07-.14-17,5.71-24.7,10.47a13.75,13.75,0,0,0,3.92-.55c10.11-2.31,20.17-4.9,30.35-6.88,17.19-3.34,34.23,1.79,51.39,1.42l-27.86,27.86c-5,1.15-10,2.27-14.93,3.46-4.61,1.1-9.16,2.58-13.83,3.25-2,.28-4.17-1.1-6.26-1.73l.26-1.47c8.19-5,17.71-6.15,26.77-9.18-3-.65-6.1-1.14-8.89-.43-7.26,1.83-14.48,3.91-21.54,6.4-7.81,2.77-15.68,4.62-24,4.27-2.1-.09-4.21.15-6.32.23a4.15,4.15,0,0,0,2.77,1.76c8.6,1.5,17.17,3.73,25.83,4.17,8.33.42,16.77-1,25.15-1.71a68.57,68.57,0,0,0,7.45-1.47L155,231a9.73,9.73,0,0,0-2.67-.65c-6.39.28-12.79.56-19.17,1.05a26,26,0,0,1-16-3.59c-9.93-5.94-20.69-8.93-32.38-7.83L74.28,209.5c3.39-.88,7.52-.83,10-2.82,7.49-6,15.41-10.5,25.71-11.61-6.91-4.28-13.39-4.38-20.06-1.5q-11,4.76-22.06,9.55l-5.8-5.8c6.45-3.23,13.1-5.57,21.56-3.82-6.57-6.3-16.16-5.24-23.88,1.49L44.11,179.33c4-2.83,7.93-5.8,12.06-8.45,6.6-4.24,13.54-6.53,21.71-5a28.82,28.82,0,0,0,19.06-3.15c1.77-1,3-2.89,4.2-4.07-6.2.61-12.25,1.4-18.31,1.77s-12.19.29-17.8.41c4-4.35,7.77-9.36,12.44-13.33s10.27-7.1,15.58-10.4,10.5-6.17,15.76-9.24l-.79-1.73c-4.07,1.32-8.35,2.19-12.18,4-12.73,6.11-23.21,15.22-32.63,25.61-1.83,2-3.43,4.27-5.43,6.08-5.44,4.95-11,9.72-16.58,14.55l-5.8-5.8c2.51-1.62,4.86-3.63,7.57-4.8,11.49-4.95,15.85-16.27,23.12-25a20.47,20.47,0,0,0-4.61,2.66A79,79,0,0,1,34.26,156c-3.65.93-7.36,1.63-11,2.43l-2.9-2.9c7.48-2.93,14.74-6.79,22.48-8.56,11.51-2.63,20-9.06,27-17.9,4.09-5.15,7.58-10.7,9.16-18.11-1.21,1.21-1.84,1.74-2.35,2.37C66,126.4,53.17,136.24,37.13,142.07c-6.94,2.52-13.17,7-19.72,10.56l-2.9-2.9c8.11-6.89,16.16-13.87,24.37-20.65a80,80,0,0,1,20.57-12.39c20.74-8.6,40.45-18.89,52.19-39.55a32.54,32.54,0,0,1,3.91-5.25c5.81-6.58,11.68-13.09,17.53-19.63-5.79,4.46-11.41,9.17-16.77,14.15-7.18,6.68-14.79,12.83-24.36,15.4a160.93,160.93,0,0,1-22.49,4c-6.93.84-13.85,1.22-20.23,5.94L93,85.35c-1.51,1.7-2.47,3.31-3.88,4.25-5.2,3.49-10.17,7.8-15.93,9.86a201.17,201.17,0,0,1-28.82,7.45c-8.26,1.63-16.35,3.1-22.89,9C20,117.24,18,118,16.25,119Zm169-1.23a34.61,34.61,0,0,0-4.66.32c-9,2.13-18.2,3.83-27,6.68-7.22,2.34-13.79,6.65-21,9.06-9.94,3.33-20.22,5.63-30.32,8.5-5.5,1.56-11,3.16-16.34,5.21-2.24.87-4,2.94-6,4.46l.71,1,3.9-1.1c14-3.92,28.06-7.22,42.68-7.27a136.66,136.66,0,0,0,36.36-5.34c8.89-2.48,18-4.13,27.14-5.76,6.31-1.13,11.95-3.55,14.42-6.59l-38.94,2.43-.56-1.63Zm7.57,72.17a41.86,41.86,0,0,0-5.68-1.77c-5.52-.91-11.06-1.67-16.61-2.37-7.82-1-15.26,0-21.88,4.68-3,2.15-6.37,2.69-10.07,2.43-12.21-.84-23.76,2.66-35.29,6a32.85,32.85,0,0,0-8,4c-1.5,1-2.61,2.51-3.9,3.8a7.84,7.84,0,0,0,5,.35c6.49-1.58,12.89-3.66,19.46-4.8,9.88-1.71,19.9-5.34,29.88-2.88,12.84,3.16,24.54-2.17,36.83-2.73l.08-1.44-26.45-2.71C168.36,188,180.5,189.45,192.77,189.91ZM55.23,180.62l.21,1.92a11.17,11.17,0,0,1,2.74-.74c9.11-.08,18.31-1,27.3.08a95.07,95.07,0,0,0,44.24-5.35c4.36-1.6,8.33-4.28,12.48-6.47a3.57,3.57,0,0,0-3-.64c-11,2.89-22.18,3-33.36,2.29-13.69-.89-26.94,1.15-40,5C62.24,177.83,58.77,179.32,55.23,180.62ZM84.1,114c6.23,0,10.49-1.73,13.83-6.13,2.95-3.89,6-8,9.72-11,7.3-5.89,12-13.3,15-22a30.21,30.21,0,0,0,.85-3.94C112.32,86.84,99,100.46,84.1,114Zm73.74,1.24c17.48-4.55,36.76-1.27,53.29-12.18C192.94,106.7,174.53,107.11,157.84,115.26ZM71.78,78.13c11.75,3.56,32.36-4.25,37.82-14a39.51,39.51,0,0,1-22.95,10.3C81.62,75,76.73,76.86,71.78,78.13ZM133,150.22c-11.74-3.38-22.52,2.38-33.82,3.23C110.79,155.94,121.68,150.87,133,150.22ZM193,138c-10.8,1.76-20.67,8.78-32.3,5.74C172.69,148.86,182.76,143,193,138Z"/><path d="M250.72,135.21c-4.69-6.46-11.47-7.44-18.82-7.68-4.73-.16-9.41-1.5-14.11-2.3l.06-1.57,15.92-5.29c-2.59-2.59-4.52-4.64-6.61-6.53a2.91,2.91,0,0,0-2.42-.75c-5.54,2.48-12,2.23-17.09,6.42-2.64,2.17-6.76,2.69-10.31,3.53a35.35,35.35,0,0,1-10,.71c3.43-1.89,6.8-3.89,10.29-5.66,3.65-1.85,7.5-3.3,11.09-5.26s6.92-4.3,10.79-6.75c-2.86-2.86-5.26-5.46-7.91-7.78a5.12,5.12,0,0,0-3.37-.67c-8.45.59-16.88,1.33-25.33,1.92-9.53.67-16.7,6.33-24.14,11.37-10.26,7-20.25,14.33-30.73,21-4.2,2.66-9.37,3.78-14.37,4.79l37.86-30.3-.95-1.31c-14.3,1.5-23.67,12.18-35.44,18.87,2.36-2.78,4.44-5.88,7.14-8.28q12.09-10.73,24.61-21c6.18-5.08,13.38-7,21.43-6.38s16.37,1,24.57,1.22a81,81,0,0,0,8.86-.72L191.29,76.36c-8.46,4-17.9,3.88-27.08,3.19-13.35-1-22.35,5.39-30,15.11-.42.54-.85,1.07-1.31,1.58a10.24,10.24,0,0,1-1.41.9c2.48-7.37,6.08-13.07,12.18-16.83a32.5,32.5,0,0,1,21.19-4.83c7.46.84,13.87-1.81,20.47-5.31L179.19,64c-5.85,5.06-13.32,5-20.53,6.34-5.81,1-11.39,3.39-18,4.73,5.21-7.69,10.39-15.39,15.65-23,.92-1.34,2.36-2.34,3.22-3.71.59-.93.58-2.23.84-3.36-1.14.21-2.76,0-3.33.69-4,4.8-8.21,9.49-11.5,14.76-5.05,8.09-9.51,16.56-14.05,25a79.88,79.88,0,0,0-5.12,11.13c-4.74,13.29-12.84,22.62-27.49,25.15-9.08,1.56-17.69,4.6-25,10.53l-.76-1c4.13-3.4,8.09-7,12.45-10.1a24.07,24.07,0,0,1,8.87-4.1c9.59-1.89,14.91-8.5,19.33-16.31,6.46-11.39,12.49-23,19.45-34.11C139.28,56.83,146.7,48,156.81,42c-2.17-4.1-4.95-5-9.4-3.31-10.32,3.84-17.89,11.37-26,18.21-2.27,1.91-4.66,3.69-7,5.54l-1-.75c2.38-3.6,4.58-7.34,7.2-10.75a29.1,29.1,0,0,1,6.65-6.64c4.82-3.17,6.9-7.84,8.35-12.33-6.78,1.47-13.93,2.57-20.77,4.68-4.3,1.33-8.19,4.09-12.17,6.39-1.69,1-3.13,2.4-5.08,3.11q9.63-9.61,19.26-19.26c3.07-3.09,6-6.27,9.14-9.33,2.89-2.87,2.55-5.37-.62-7.7L135.22,0,260.57,125.35Zm-97.22-70,1.11,1.91c5.86-5.36,14.43-1.87,20.57-6.93l-8.33-8.34Z"/><path d="M16.25,119c1.77-1,3.78-1.73,5.25-3.06,6.54-5.9,14.63-7.37,22.89-9a201.17,201.17,0,0,0,28.82-7.45C79,97.4,83.94,93.09,89.14,89.6c1.41-.94,2.37-2.55,3.88-4.25l-43.79,6.4c6.38-4.72,13.3-5.1,20.23-5.94a160.93,160.93,0,0,0,22.49-4c9.57-2.57,17.18-8.72,24.36-15.4,5.36-5,11-9.69,16.77-14.15-5.85,6.54-11.72,13.05-17.53,19.63a32.54,32.54,0,0,0-3.91,5.25c-11.74,20.66-31.45,31-52.19,39.55a80,80,0,0,0-20.57,12.39c-8.21,6.78-16.26,13.76-24.37,20.65l-4.06-4.06a148.73,148.73,0,0,0,35.67-31.51c-16.25,4.78-30.42,13.14-43.22,24L0,135.22Z"/><path d="M203.13,182.8c-17.16.37-34.2-4.76-51.39-1.42-10.18,2-20.24,4.57-30.35,6.88a13.75,13.75,0,0,1-3.92.55c7.7-4.76,14.63-10.61,24.7-10.47,6.43.09,12.91-2,19.32-3.38,1.8-.38,3.43-1.51,6.29-2.83-3.77-1.89-6.55-3.45-9.46-4.72a54.36,54.36,0,0,0-26.73-4.68c-8.81.73-17.69.52-26.53.72l-.2-1.16c.74-.3,1.45-.66,2.2-.89.91-.29,1.88-.41,2.78-.71,19.88-6.76,39.07-6.05,58.6,2.59,15.67,6.94,32.52,6.46,49.13,2.26,1.17-.29,2.36-.49,3.55-.73Z"/><path d="M236.21,149.72c-6.07,1.84-12.26,3.36-18.17,5.62-5.19,2-10,4.85-15.1,7.21a6.83,6.83,0,0,1-4.63.31l6.42-5.07c-20.7,3.21-39.66-.43-57.26-11.42,1.84.15,3.68.27,5.51.48a9.22,9.22,0,0,1,2.78.62c17.78,8.2,32.85,1.71,47.18-8.69,3.78-2.75,7.41-5.71,11.35-8.32-5.55,8.64-11.62,16.71-22.08,20.28,5.71,1.6,10.49-.33,15.15-2.59,12.24-5.93,24.95-9.51,38.71-8.3Z"/><path d="M84.73,220c11.69-1.1,22.45,1.89,32.38,7.83a26,26,0,0,0,16,3.59c6.38-.49,12.78-.77,19.17-1.05A9.73,9.73,0,0,1,155,231l-2.32,2.33c-8.29.38-15,4.79-22.19,8.29-5.54,2.71-11.5,4.56-17.27,6.8L106.78,242l11.13-3.28a120.14,120.14,0,0,0-28.54-14.13Z"/><path d="M41.2,176.42c5.54-4.83,11.14-9.6,16.58-14.55,2-1.81,3.6-4.07,5.43-6.08,9.42-10.39,19.9-19.5,32.63-25.61,3.83-1.84,8.11-2.71,12.18-4l.79,1.73c-5.26,3.07-10.59,6-15.76,9.24s-10.85,6.38-15.58,10.4S69,156.5,65,160.85c5.61-.12,11.71,0,17.8-.41s12.11-1.16,18.31-1.77c-1.18,1.18-2.43,3.12-4.2,4.07a28.82,28.82,0,0,1-19.06,3.15c-8.17-1.54-15.11.75-21.71,5-4.13,2.65-8.05,5.62-12.06,8.45Z"/><path d="M167.72,218.21a68.57,68.57,0,0,1-7.45,1.47c-8.38.75-16.82,2.13-25.15,1.71-8.66-.44-17.23-2.67-25.83-4.17a4.15,4.15,0,0,1-2.77-1.76c2.11-.08,4.22-.32,6.32-.23,8.33.35,16.2-1.5,24-4.27,7.06-2.49,14.28-4.57,21.54-6.4,2.79-.71,5.88-.22,8.89.43-9.06,3-18.58,4.19-26.77,9.18l-.26,1.47c2.09.63,4.29,2,6.26,1.73,4.67-.67,9.22-2.15,13.83-3.25,5-1.19,9.95-2.31,14.93-3.46Z"/><path d="M17.41,152.63c6.55-3.58,12.78-8,19.72-10.56,16-5.83,28.85-15.67,39.47-28.74.51-.63,1.14-1.16,2.35-2.37-1.58,7.41-5.07,13-9.16,18.11-7,8.84-15.49,15.27-27,17.9-7.74,1.77-15,5.63-22.48,8.56Z"/><path class="cls-3" d="M2.9,138.12c12.8-10.82,27-19.18,43.22-24a148.73,148.73,0,0,1-35.67,31.51Z"/><path class="cls-3" d="M113.17,248.39c5.77-2.24,11.73-4.09,17.27-6.8,7.16-3.5,13.9-7.91,22.19-8.29l-27.28,27.27Z"/><path d="M23.21,158.43c3.69-.8,7.4-1.5,11-2.43a79,79,0,0,0,27.22-12.56,20.47,20.47,0,0,1,4.61-2.66c-7.27,8.77-11.63,20.09-23.12,25-2.71,1.17-5.06,3.18-7.57,4.8l-2.32-2.32,9.21-7.16-.27-1-13.58,3.52Z"/><path d="M67.32,67.9c5.21-1,10.52-1.55,15.61-3,9.7-2.66,19.23-5.7,24.48-15.61,1.67-3.16,3.77-6.56,9.13-5C111,51.17,106.11,58.11,100.2,64.08c-2.49,2.52-7,4-10.72,4.19A59.74,59.74,0,0,0,55.12,81c-.28.22-.76.19-1.14.27Z"/><path d="M67.9,203.12q11-4.78,22.06-9.55c6.67-2.88,13.15-2.78,20.06,1.5-10.3,1.11-18.22,5.66-25.71,11.61-2.51,2-6.64,1.94-10,2.82Z"/><path class="cls-3" d="M89.37,224.59a120.14,120.14,0,0,1,28.54,14.13L106.78,242Z"/><path d="M37.14,98.08l37.43-5.74a4.24,4.24,0,0,1,3,.42c-1.52.62-3,1.37-4.55,1.85-4.54,1.41-9.29,2.27-13.61,4.14-8.24,3.55-16.61,3.67-25.2,2.23Z"/><path d="M59.78,195c7.72-6.73,17.31-7.79,23.88-1.49-8.46-1.75-15.11.59-21.56,3.82Z"/><path d="M80.09,55.13l11.49.06C87,60.07,80.65,60.45,74.29,60.93Z"/><path class="cls-3" d="M28.44,163.66,42,160.14l.27,1-9.21,7.16Z"/><path d="M185.2,117.74l-19.59,9.93.56,1.63,38.94-2.43c-2.47,3-8.11,5.46-14.42,6.59-9.1,1.63-18.25,3.28-27.14,5.76a136.66,136.66,0,0,1-36.36,5.34c-14.62.05-28.71,3.35-42.68,7.27l-3.9,1.1-.71-1c2-1.52,3.75-3.59,6-4.46,5.33-2,10.84-3.65,16.34-5.21,10.1-2.87,20.38-5.17,30.32-8.5,7.2-2.41,13.77-6.72,21-9.06,8.8-2.85,18-4.55,27-6.68A34.61,34.61,0,0,1,185.2,117.74Z"/><path d="M192.77,189.91c-12.27-.46-24.41-1.95-36.65,2.57l26.45,2.71-.08,1.44c-12.29.56-24,5.89-36.83,2.73-10-2.46-20,1.17-29.88,2.88-6.57,1.14-13,3.22-19.46,4.8a7.84,7.84,0,0,1-5-.35c1.29-1.29,2.4-2.85,3.9-3.8a32.85,32.85,0,0,1,8-4c11.53-3.3,23.08-6.8,35.29-6,3.7.26,7.05-.28,10.07-2.43,6.62-4.71,14.06-5.65,21.88-4.68,5.55.7,11.09,1.46,16.61,2.37A41.86,41.86,0,0,1,192.77,189.91Z"/><path d="M55.23,180.62c3.54-1.3,7-2.79,10.62-3.87,13-3.89,26.28-5.93,40-5,11.18.72,22.38.6,33.36-2.29a3.57,3.57,0,0,1,3,.64c-4.15,2.19-8.12,4.87-12.48,6.47a95.07,95.07,0,0,1-44.24,5.35c-9-1-18.19-.16-27.3-.08a11.17,11.17,0,0,0-2.74.74Z"/><path d="M84.1,114C99,100.46,112.32,86.84,123.49,71a30.21,30.21,0,0,1-.85,3.94c-3,8.67-7.69,16.08-15,22-3.76,3-6.77,7.08-9.72,11C94.59,112.29,90.33,114.06,84.1,114Z"/><path d="M157.84,115.26c16.69-8.15,35.1-8.56,53.29-12.18C194.6,114,175.32,110.71,157.84,115.26Z"/><path d="M71.78,78.13c5-1.27,9.84-3.15,14.87-3.69a39.51,39.51,0,0,0,22.95-10.3C104.14,73.88,83.53,81.69,71.78,78.13Z"/><path d="M133,150.22c-11.32.65-22.21,5.72-33.82,3.23C110.48,152.6,121.26,146.84,133,150.22Z"/><path d="M193,138c-10.23,5-20.3,10.9-32.3,5.74C172.32,146.74,182.19,139.72,193,138Z"/><path class="cls-3" d="M153.5,65.25l13.35-13.36,8.33,8.34c-6.14,5.06-14.71,1.57-20.57,6.93Z"/></g></g></g></g></svg>