<svg xmlns="http://www.w3.org/2000/svg" xmlns:xlink="http://www.w3.org/1999/xlink" viewBox="0 0 189.53 94.77"><defs><style>.cls-1{fill:none;}.cls-2{clip-path:url(#clip-path);}.cls-3{fill:#057f84;}.cls-4{fill:#3d233a;}.cls-5{fill:#f2810b;}.cls-6{fill:#de0a20;}</style><clipPath id="clip-path"><polygon class="cls-1" points="95.17 5.27 179.21 89.31 11.13 89.31 95.17 5.27"/></clipPath></defs><title>Asset 4</title><g id="Layer_2" data-name="Layer 2"><g id="DATE"><g class="cls-2"><path d="M0,94.77H2.33a18.62,18.62,0,0,1-.35-2Z"/><path d="M83.66,11.11a35.26,35.26,0,0,0,7,7.51A6.88,6.88,0,0,0,93.86,20a2.13,2.13,0,1,1-.67,4.2,10.9,10.9,0,0,1-6.07-3c-.88-.76-1.67-1.64-2.5-2.47a28.81,28.81,0,0,1-4.07-4.56L76.77,18l.85-.09a1.74,1.74,0,0,1,2,1.64,2.23,2.23,0,0,1-1.7,2.54c-1.41.29-2.85.44-4.25.77a24.33,24.33,0,0,0-2.43.72l-9.77,9.77a2.22,2.22,0,0,1-.92,1.36,1.62,1.62,0,0,1-.76.31l-3.47,3.48a24.64,24.64,0,0,1,4.7,0,5.38,5.38,0,0,1,1.06.21,2,2,0,0,1,1.49,2.35,2,2,0,0,1-2.37,1.72,22.86,22.86,0,0,0-10.54,1.33l-6.08,6.08a24.81,24.81,0,0,1,12.31,5.52c1.34,1.27,1.48,2.2.75,3.14a2.19,2.19,0,0,1-3,.5,37.13,37.13,0,0,0-3.88-2.68,21.81,21.81,0,0,0-9.85-2.47h-.32l-4.31,4.3a25.24,25.24,0,0,0,5.74,3,5.64,5.64,0,0,0,4.59.13,2.14,2.14,0,1,1,1.75,3.9,8.59,8.59,0,0,1-6.34.34,26.45,26.45,0,0,1-8.81-4.28l-2.68,2.67a2,2,0,0,1-.14.5,2.4,2.4,0,0,1-1.85,1.5l-7.13,7.13a2.45,2.45,0,0,1,1,1.34,10.38,10.38,0,0,1,.25,5,29.87,29.87,0,0,1-7,15.07h7.47a18.2,18.2,0,0,0,2.29-7.46,2.29,2.29,0,0,1,2.68-2.06c1.16.17,1.7,1.06,1.56,2.53a23.51,23.51,0,0,1-1.8,7h7.35c.69-.66,1.61-1.36,2.51-2.08a2.18,2.18,0,0,1,3.22.14,2,2,0,0,1,.35,1.94h5.27c-.5-.84-.28-1.67.93-2.77a30.74,30.74,0,0,1,17.81-7c1.57-.1,2.43.55,2.54,1.79a2.2,2.2,0,0,1-2.24,2.47,26.91,26.91,0,0,0-13.53,4.61c-.41.28-.81.6-1.21.91H67.73a16.38,16.38,0,0,0,2.59-2.06c2.56-2.55,3.54-5.78,4-9.22.12-.81.15-1.62.26-2.42a2.19,2.19,0,0,1,2.56-2c1.16.12,1.81.93,1.72,2.31-.35,4.91-1.35,9.57-4.6,13.39h8.14A2.74,2.74,0,0,1,83,93.46c.7-.93,1.65-1,2.85-.18L88,94.77h22.57a19.42,19.42,0,0,0-6.51-5.54,1.85,1.85,0,0,1-.93-2.6,2.18,2.18,0,0,1,2.93-1.18,21.83,21.83,0,0,1,6.07,4.49,36.61,36.61,0,0,1,3.7,4.83h9.08a29.51,29.51,0,0,1-5.44-7.9c-.7-1.5-.38-2.64.92-3.32s2.13-.22,2.89,1.32a29,29,0,0,0,7.84,9.9h11.67a23.55,23.55,0,0,1-7.44-5.39c-1-1.09-1.15-2.16-.42-3.16a1.87,1.87,0,0,1,3.18-.22c.28.29.57.57.86.86a18,18,0,0,0,15.22,5.43c1.57-.19,2.73.51,2.9,1.73a2.09,2.09,0,0,1,0,.75h7.75a21,21,0,0,0-4.8-5.58,1.91,1.91,0,0,1-.38-2.77,2,2,0,0,1,2.73-.66,11.67,11.67,0,0,1,2.34,1.91,27.23,27.23,0,0,1,5,7.1h12.93a2,2,0,0,1-.73-1.58c0-1.82,1.1-2.65,2.82-2,.73.28,1.46.59,2.17.92l-7.36-7.36a17.73,17.73,0,0,1-3.79,6.46c-1.14,1.24-2.42,1.33-3.4.29s-.79-2,.21-3.12a13,13,0,0,0,3.4-7.21l-5-5c-.14,1-.88,1.53-2.36,1.5a18.91,18.91,0,0,0-15.83,7.22,2.13,2.13,0,0,1-3.17.51,2.22,2.22,0,0,1-.19-3.15c.1-.14.23-.27.35-.41l1.51-1.76a23.42,23.42,0,0,1,16.93-6.68L163,68.21a17.17,17.17,0,0,0-3.11,1.65,2.12,2.12,0,0,1-3.08-.38c-.67-.92-.5-2,.59-3a16.06,16.06,0,0,1,2.33-1.52L148.43,53.67a13.57,13.57,0,0,0-1.26.64,16.47,16.47,0,0,0-3,2.28c-.57.69-1.15,1.38-1.71,2.09a2.27,2.27,0,0,1-3.23.51c-1.1-.8-1.18-1.75-.21-3a21.51,21.51,0,0,1,6.27-5.68l-3.9-3.9A27.35,27.35,0,0,1,126.72,44c-.88-.43-1.75-.88-2.59-1.37C123,42,123,41.05,123.45,40a1.66,1.66,0,0,1,2.12-1.14,3.17,3.17,0,0,1,1.26.44c3.06,2,6.5,2.66,10,3.15l.34,0L127,32.2a1.84,1.84,0,0,1-1.69,2.21,17.53,17.53,0,0,0-6.54,2.65,5.87,5.87,0,0,0-2.6,4.22,26.53,26.53,0,0,0,.09,5.12,2.12,2.12,0,0,1-1.69,2.39,2,2,0,0,1-2.44-1.58c-.83-4-.56-7.89,1.91-11.37.16-.22.35-.41.52-.62,2.66-2.89,6.19-4.08,9.84-5a2.71,2.71,0,0,1,.55-.08l-9.66-9.66A2.14,2.14,0,0,1,115,21.9a2,2,0,0,1-3,.85,28.9,28.9,0,0,0-7.64-3A38.58,38.58,0,0,0,99,19a1.87,1.87,0,0,1-1.76-1.44,2.13,2.13,0,0,1,.49-2.25,2,2,0,0,1,1.74-.54,31.67,31.67,0,0,1,14,3.89l-7.8-7.8a2.45,2.45,0,0,1-1.11.18,1.81,1.81,0,0,1-1.93-2c0-.39,0-.78.08-1.16L97,2.18a13,13,0,0,1-2.17,7.46c-.86,1.24-1.83,1.53-3,.9a1.87,1.87,0,0,1-.7-2.95A10.28,10.28,0,0,0,92.67,2.1ZM77.75,27.39a2.08,2.08,0,0,1,2.65,3.19c-.66.67-1.41,1.26-2.12,1.89a22.4,22.4,0,0,0-6.2,10.42c-.51,1.79-2.24,2.39-3.53,1.28A2,2,0,0,1,67.9,42,26.72,26.72,0,0,1,77.75,27.39ZM59.51,51.25c-1.19-1.06-1.48-2.2-.67-3.25s2-1,3.24-.11a21.8,21.8,0,0,1,2.84,2.51,33.1,33.1,0,0,1,7.16,10.88A12.78,12.78,0,0,1,73,65.63a1.92,1.92,0,0,1-1.85,2.09A2,2,0,0,1,68.76,66C67.92,59.7,64,55.28,59.51,51.25Zm19.25,4c-.27,1.64-1.19,2.43-2.49,2.23s-2-1.3-1.77-2.94a23.4,23.4,0,0,1,6.77-13.07,22.46,22.46,0,0,1,9.15-5.34c1.46-.45,2.5,0,2.9,1.36a2.14,2.14,0,0,1-1.61,2.78C84.47,42.78,80,47.66,78.76,55.3ZM45.37,85.81A24.34,24.34,0,0,1,38.5,84a46.68,46.68,0,0,1-11.61-7.31,1.83,1.83,0,0,1-.21-3c1-.94,2.14-.89,3.36.1a38.72,38.72,0,0,0,11.33,6.7,35.84,35.84,0,0,0,4.55,1.2,2.17,2.17,0,0,1,1.83,2.4A2.13,2.13,0,0,1,45.37,85.81Zm12.91-3.33A2.1,2.1,0,0,1,55.19,82a22.68,22.68,0,0,0-12.73-7.92c-1.56-.38-2.22-1.29-1.9-2.57a2.2,2.2,0,0,1,2.94-1.61,26.73,26.73,0,0,1,13.08,7.23c.64.71,1.3,1.38,1.9,2.12A2.11,2.11,0,0,1,58.28,82.48Zm8.29-2.15a2.25,2.25,0,0,1-3.28-.7,27.91,27.91,0,0,1-4.8-15.11,1.89,1.89,0,0,1,.62-1.72,2.12,2.12,0,0,1,2.27-.42,1.88,1.88,0,0,1,1.35,1.69c.13,1.25.2,2.51.39,3.76a22.9,22.9,0,0,0,3.75,9.46C67.77,78.64,67.68,79.55,66.57,80.33Zm6-5.45a2.07,2.07,0,0,1-2.45-1.59,2,2,0,0,1,1.4-2.53,40.27,40.27,0,0,0,4.23-1.4,12.22,12.22,0,0,0,7.42-12.21,2.4,2.4,0,0,1,.22-1.7,2.13,2.13,0,0,1,2.3-1.05,2.31,2.31,0,0,1,1.76,2.31,16.46,16.46,0,0,1-1.58,8.54,15.25,15.25,0,0,1-3,4.28A20.3,20.3,0,0,1,72.53,74.88ZM91,51.91a9.59,9.59,0,0,1-.57-3.86,2.29,2.29,0,0,1,2.4-2.38c1.26,0,1.93.81,1.92,2.39,0,2.61,1.2,4.77,2.53,6.87,1.85,2.89,3.83,5.69,6.91,7.46a12.32,12.32,0,0,0,3.38,1.32c1.49.33,2,1.09,1.82,2.33a2.2,2.2,0,0,1-2.79,1.86,15.48,15.48,0,0,1-7.74-4.17c-.3-.28-.58-.58-.86-.86A32.48,32.48,0,0,1,91,51.91Zm6.65,40.86c-.89.75-1.76.42-2.61-.13A15.92,15.92,0,0,1,89.7,72a15.73,15.73,0,0,1,2.66-3.71c.19-.2.38-.4.58-.58a2.17,2.17,0,0,1,3.23-.06c1,1,.89,2-.23,3.16a11.66,11.66,0,0,0-3.15,12A10.43,10.43,0,0,0,97,88.76a2.91,2.91,0,0,1,1.35,1.46A2.27,2.27,0,0,1,97.62,92.77Zm16.47-14.92a5.11,5.11,0,0,0-5.14-2,8.57,8.57,0,0,0-6.07,3.67,20.42,20.42,0,0,0-1.13,2,2.15,2.15,0,1,1-3.94-1.7,11.42,11.42,0,0,1,2.89-4.22c2.88-2.66,6.17-4.35,10.22-4.11A8.23,8.23,0,0,1,117.09,75a1.81,1.81,0,0,1,0,2.66C116.27,78.49,114.77,78.72,114.09,77.85Zm34.67-18.62a2,2,0,0,1,2.23.52,1.89,1.89,0,0,1,.53,1.6A23.11,23.11,0,0,1,141.63,79c-1.47,1.06-2.33,1-3.15-.09a2.15,2.15,0,0,1,.36-3.1,19.41,19.41,0,0,0,5.68-5.9,18.73,18.73,0,0,0,2.73-8.66A2.11,2.11,0,0,1,148.76,59.23Zm-19,21a2,2,0,0,1-3,.15c-.84-.75-1.6-1.58-2.35-2.33a14,14,0,0,1-5.27-12.36,10.17,10.17,0,0,1,.43-2.25,2.17,2.17,0,0,1,2.83-1.57c1.2.35,1.66,1.24,1.33,2.66a9.81,9.81,0,0,0,2.9,9.87c1,1,2.08,1.87,3.08,2.85A1.93,1.93,0,0,1,129.78,80.27Zm-6.44-30.82a20.81,20.81,0,0,1,5.11,3.74,21.09,21.09,0,0,1,6,11.54,9.52,9.52,0,0,1-.62,5.3,1.9,1.9,0,0,1-2.59,1.23,2.15,2.15,0,0,1-1.39-2.81,7.21,7.21,0,0,0-.25-5.64,17.5,17.5,0,0,0-8.31-9.58c-1.72-.91-2-1.77-1.3-3.08S121.81,48.67,123.34,49.45Zm-19.85-7.61A15.13,15.13,0,0,0,115,53.66c1.5.4,2.07,1.23,1.78,2.53A2.22,2.22,0,0,1,114,57.85c-6.92-1.26-13.7-8.21-14.75-15.1a2.19,2.19,0,0,1,.49-1.94,2.46,2.46,0,0,1,2.42-.68C103,40.38,103.3,41.05,103.49,41.84ZM94.71,28.55c1.86.35,3.68.8,5.57,1,3.54.37,6.89.08,9.92-2.05a2,2,0,0,1,2.75.56c.74.82.55,1.95-.56,3.05a11.94,11.94,0,0,1-5.13,2.4,30.54,30.54,0,0,1-13.6-.84,1.84,1.84,0,0,1-1.55-2.39A2.12,2.12,0,0,1,94.71,28.55Z"/><path d="M12.54,91.87a25.72,25.72,0,0,0,5.65-11.51,10.11,10.11,0,0,0,.16-4L6.17,88.6a15.23,15.23,0,0,0,.51,5.87l.09.3h5.34A2.29,2.29,0,0,1,12.54,91.87Z"/><path class="cls-3" d="M41.3,94.77A2,2,0,0,0,41,92.83a2.18,2.18,0,0,0-3.22-.14c-.9.72-1.82,1.42-2.51,2.08Z"/><path class="cls-3" d="M104.06,89.23a19.42,19.42,0,0,1,6.51,5.54h5.26a36.61,36.61,0,0,0-3.7-4.83,21.83,21.83,0,0,0-6.07-4.49,2.18,2.18,0,0,0-2.93,1.18A1.85,1.85,0,0,0,104.06,89.23Z"/><path class="cls-4" d="M92.36,68.29c.19-.2.38-.4.58-.58a2.17,2.17,0,0,1,3.23-.06c1,1,.89,2-.23,3.16a11.66,11.66,0,0,0-3.15,12A10.43,10.43,0,0,0,97,88.76a2.91,2.91,0,0,1,1.35,1.46,2.27,2.27,0,0,1-.75,2.55c-.89.75-1.76.42-2.61-.13A15.92,15.92,0,0,1,89.7,72,15.73,15.73,0,0,1,92.36,68.29Z"/><path class="cls-3" d="M98,62.87a32.48,32.48,0,0,1-7-11,9.59,9.59,0,0,1-.57-3.86,2.29,2.29,0,0,1,2.4-2.38c1.26,0,1.93.81,1.92,2.39,0,2.61,1.2,4.77,2.53,6.87,1.85,2.89,3.83,5.69,6.91,7.46a12.32,12.32,0,0,0,3.38,1.32c1.49.33,2,1.09,1.82,2.33a2.2,2.2,0,0,1-2.79,1.86,15.48,15.48,0,0,1-7.74-4.17C98.53,63.45,98.25,63.15,98,62.87Z"/><path class="cls-5" d="M2,92.79a18.62,18.62,0,0,0,.35,2H6.77l-.09-.3a15.23,15.23,0,0,1-.51-5.87Z"/><path class="cls-5" d="M119.47,86.87a29.51,29.51,0,0,0,5.44,7.9h6.21a29,29,0,0,1-7.84-9.9c-.76-1.54-1.72-1.94-2.89-1.32S118.77,85.37,119.47,86.87Z"/><path class="cls-3" d="M81.27,41.52a22.46,22.46,0,0,1,9.15-5.34c1.46-.45,2.5,0,2.9,1.36a2.14,2.14,0,0,1-1.61,2.78c-7.24,2.46-11.69,7.34-12.95,15-.27,1.64-1.19,2.43-2.49,2.23s-2-1.3-1.77-2.94A23.4,23.4,0,0,1,81.27,41.52Z"/><path class="cls-4" d="M82.44,94.77H88l-2.18-1.49c-1.2-.84-2.15-.75-2.85.18A2.74,2.74,0,0,0,82.44,94.77Z"/><path class="cls-6" d="M82.88,69.53a20.3,20.3,0,0,1-10.35,5.35,2.07,2.07,0,0,1-2.45-1.59,2,2,0,0,1,1.4-2.53,40.27,40.27,0,0,0,4.23-1.4,12.22,12.22,0,0,0,7.42-12.21,2.4,2.4,0,0,1,.22-1.7,2.13,2.13,0,0,1,2.3-1.05,2.31,2.31,0,0,1,1.76,2.31,16.46,16.46,0,0,1-1.58,8.54A15.25,15.25,0,0,1,82.88,69.53Z"/><path class="cls-3" d="M128.45,53.19a21.09,21.09,0,0,1,6,11.54,9.52,9.52,0,0,1-.62,5.3,1.9,1.9,0,0,1-2.59,1.23,2.15,2.15,0,0,1-1.39-2.81,7.21,7.21,0,0,0-.25-5.64,17.5,17.5,0,0,0-8.31-9.58c-1.72-.91-2-1.77-1.3-3.08s1.84-1.48,3.37-.7A20.81,20.81,0,0,1,128.45,53.19Z"/><path class="cls-3" d="M74.36,83.49c-.5,3.44-1.48,6.67-4,9.22a16.38,16.38,0,0,1-2.59,2.06H74.3c3.25-3.82,4.25-8.48,4.6-13.39.09-1.38-.56-2.19-1.72-2.31a2.19,2.19,0,0,0-2.56,2C74.51,81.87,74.48,82.68,74.36,83.49Z"/><path class="cls-3" d="M116.22,46.4a26.53,26.53,0,0,1-.09-5.12,5.87,5.87,0,0,1,2.6-4.22,17.53,17.53,0,0,1,6.54-2.65A1.84,1.84,0,0,0,127,32.2l-2-2.06a2.71,2.71,0,0,0-.55.08c-3.65.92-7.18,2.11-9.84,5-.17.21-.36.4-.52.62-2.47,3.48-2.74,7.35-1.91,11.37a2,2,0,0,0,2.44,1.58A2.12,2.12,0,0,0,116.22,46.4Z"/><path class="cls-5" d="M168.14,73.37a23.42,23.42,0,0,0-16.93,6.68l-1.51,1.76c-.12.14-.25.27-.35.41a2.22,2.22,0,0,0,.19,3.15,2.13,2.13,0,0,0,3.17-.51,18.91,18.91,0,0,1,15.83-7.22c1.48,0,2.22-.45,2.36-1.5Z"/><path class="cls-3" d="M135.35,89.38a23.55,23.55,0,0,0,7.44,5.39h14.28a2.09,2.09,0,0,0,0-.75c-.17-1.22-1.33-1.92-2.9-1.73A18,18,0,0,1,139,86.86c-.29-.29-.58-.57-.86-.86a1.87,1.87,0,0,0-3.18.22C134.2,87.22,134.32,88.29,135.35,89.38Z"/><path class="cls-4" d="M99.75,40.81a2.46,2.46,0,0,1,2.42-.68c.86.25,1.13.92,1.32,1.71A15.13,15.13,0,0,0,115,53.66c1.5.4,2.07,1.23,1.78,2.53A2.22,2.22,0,0,1,114,57.85c-6.92-1.26-13.7-8.21-14.75-15.1A2.19,2.19,0,0,1,99.75,40.81Z"/><path class="cls-4" d="M18.35,76.41a10.11,10.11,0,0,1-.16,4,25.72,25.72,0,0,1-5.65,11.51,2.29,2.29,0,0,0-.43,2.9h3.56a29.87,29.87,0,0,0,7-15.07,10.38,10.38,0,0,0-.25-5,2.45,2.45,0,0,0-1-1.34Z"/><path class="cls-3" d="M64.92,50.4a33.1,33.1,0,0,1,7.16,10.88A12.78,12.78,0,0,1,73,65.63a1.92,1.92,0,0,1-1.85,2.09A2,2,0,0,1,68.76,66C67.92,59.7,64,55.28,59.51,51.25c-1.19-1.06-1.48-2.2-.67-3.25s2-1,3.24-.11A21.8,21.8,0,0,1,64.92,50.4Z"/><path class="cls-5" d="M26.68,73.66c1-.94,2.14-.89,3.36.1a38.72,38.72,0,0,0,11.33,6.7,35.84,35.84,0,0,0,4.55,1.2,2.17,2.17,0,0,1,1.83,2.4,2.13,2.13,0,0,1-2.38,1.75A24.34,24.34,0,0,1,38.5,84a46.68,46.68,0,0,1-11.61-7.31A1.83,1.83,0,0,1,26.68,73.66Z"/><path class="cls-4" d="M33.16,61.61A26.45,26.45,0,0,0,42,65.89a8.59,8.59,0,0,0,6.34-.34,2.14,2.14,0,1,0-1.75-3.9A5.64,5.64,0,0,1,42,61.52a25.24,25.24,0,0,1-5.74-3Z"/><path class="cls-6" d="M100.7,75.61c2.88-2.66,6.17-4.35,10.22-4.11A8.23,8.23,0,0,1,117.09,75a1.81,1.81,0,0,1,0,2.66c-.85.87-2.35,1.1-3,.23a5.11,5.11,0,0,0-5.14-2,8.57,8.57,0,0,0-6.07,3.67,20.42,20.42,0,0,0-1.13,2,2.15,2.15,0,1,1-3.94-1.7A11.42,11.42,0,0,1,100.7,75.61Z"/><path class="cls-6" d="M160,89.19a21,21,0,0,1,4.8,5.58h4.87a27.23,27.23,0,0,0-5-7.1,11.67,11.67,0,0,0-2.34-1.91,2,2,0,0,0-2.73.66A1.91,1.91,0,0,0,160,89.19Z"/><path class="cls-6" d="M138.84,75.81a19.41,19.41,0,0,0,5.68-5.9,18.73,18.73,0,0,0,2.73-8.66,2.11,2.11,0,0,1,1.51-2,2,2,0,0,1,2.23.52,1.89,1.89,0,0,1,.53,1.6A23.11,23.11,0,0,1,141.63,79c-1.47,1.06-2.33,1-3.15-.09A2.15,2.15,0,0,1,138.84,75.81Z"/><path class="cls-4" d="M46.57,94.77h4.3c.4-.31.8-.63,1.21-.91a26.91,26.91,0,0,1,13.53-4.61,2.2,2.2,0,0,0,2.24-2.47c-.11-1.24-1-1.89-2.54-1.79A30.74,30.74,0,0,0,47.5,92C46.29,93.1,46.07,93.93,46.57,94.77Z"/><path class="cls-5" d="M137.2,42.44l-.34,0c-3.53-.49-7-1.2-10-3.15a3.17,3.17,0,0,0-1.26-.44A1.66,1.66,0,0,0,123.45,40c-.41,1.1-.42,2,.68,2.67.84.49,1.71.94,2.59,1.37a27.35,27.35,0,0,0,14.64,2.6Z"/><path class="cls-4" d="M148.43,53.66l-3.17-3.17A21.37,21.37,0,0,0,139,56.17c-1,1.27-.89,2.22.21,3a2.27,2.27,0,0,0,3.23-.51c.56-.71,1.14-1.4,1.71-2.09a16.47,16.47,0,0,1,3-2.28C147.58,54.07,148,53.86,148.43,53.66Z"/><path class="cls-5" d="M112.39,31.1a11.94,11.94,0,0,1-5.13,2.4,30.54,30.54,0,0,1-13.6-.84,1.84,1.84,0,0,1-1.55-2.39,2.12,2.12,0,0,1,2.6-1.72c1.86.35,3.68.8,5.57,1,3.54.37,6.89.08,9.92-2.05a2,2,0,0,1,2.75.56C113.69,28.87,113.5,30,112.39,31.1Z"/><path class="cls-3" d="M80.55,14.22a28.81,28.81,0,0,0,4.07,4.56c.83.83,1.62,1.71,2.5,2.47a10.9,10.9,0,0,0,6.07,3,2.13,2.13,0,1,0,.67-4.2,6.88,6.88,0,0,1-3.17-1.42,35.26,35.26,0,0,1-7-7.51Z"/><path class="cls-5" d="M186.88,92.11c-.71-.33-1.44-.64-2.17-.92-1.72-.65-2.84.18-2.82,2a2,2,0,0,0,.73,1.58h6.91Z"/><path class="cls-4" d="M124.42,78.09a14,14,0,0,1-5.27-12.36,10.17,10.17,0,0,1,.43-2.25,2.17,2.17,0,0,1,2.83-1.57c1.2.35,1.66,1.24,1.33,2.66a9.81,9.81,0,0,0,2.9,9.87c1,1,2.08,1.87,3.08,2.85a1.93,1.93,0,0,1,.06,3,2,2,0,0,1-3,.15C125.93,79.67,125.17,78.84,124.42,78.09Z"/><path class="cls-4" d="M159.71,64.94a16.62,16.62,0,0,0-2.33,1.52c-1.09,1-1.26,2.1-.59,3a2.12,2.12,0,0,0,3.08.38A17.17,17.17,0,0,1,163,68.21Z"/><path class="cls-3" d="M56.58,77.14c.64.71,1.3,1.38,1.9,2.12A2.15,2.15,0,1,1,55.19,82a22.68,22.68,0,0,0-12.73-7.92c-1.56-.38-2.22-1.29-1.9-2.57a2.2,2.2,0,0,1,2.94-1.61A26.73,26.73,0,0,1,56.58,77.14Z"/><path class="cls-5" d="M92.67,2.1a10.28,10.28,0,0,1-1.58,5.49,1.87,1.87,0,0,0,.7,2.95c1.16.63,2.13.34,3-.9A13,13,0,0,0,97,2.18L94.77,0Z"/><path class="cls-4" d="M179.52,84.75l-3.58-3.58a13,13,0,0,1-3.4,7.21c-1,1.11-1,2.21-.21,3.12s2.26,1,3.4-.29A17.73,17.73,0,0,0,179.52,84.75Z"/><path class="cls-3" d="M40.54,54.23h.32a21.81,21.81,0,0,1,9.85,2.47,37.13,37.13,0,0,1,3.88,2.68,2.19,2.19,0,0,0,3-.5c.73-.94.59-1.87-.75-3.14a24.81,24.81,0,0,0-12.31-5.52Z"/><path class="cls-6" d="M28.49,66.28a2.4,2.4,0,0,0,1.85-1.5,2,2,0,0,0,.14-.5Z"/><path class="cls-6" d="M71.2,23.57a24.33,24.33,0,0,1,2.43-.72c1.4-.33,2.84-.48,4.25-.77a2.23,2.23,0,0,0,1.7-2.54,1.74,1.74,0,0,0-2-1.64l-.85.09Z"/><path class="cls-4" d="M78.28,32.47a22.4,22.4,0,0,0-6.2,10.42c-.51,1.79-2.24,2.39-3.53,1.28A2,2,0,0,1,67.9,42a26.72,26.72,0,0,1,9.85-14.6,2.08,2.08,0,0,1,2.65,3.19C79.74,31.25,79,31.84,78.28,32.47Z"/><path class="cls-5" d="M50.62,44.15a22.86,22.86,0,0,1,10.54-1.33,2,2,0,0,0,2.37-1.72A2,2,0,0,0,62,38.75,5.38,5.38,0,0,0,61,38.54a24.64,24.64,0,0,0-4.7,0Z"/><path class="cls-4" d="M59.11,62.8a2.12,2.12,0,0,1,2.27-.42,1.88,1.88,0,0,1,1.35,1.69c.13,1.25.2,2.51.39,3.76a22.9,22.9,0,0,0,3.75,9.46c.9,1.35.81,2.26-.3,3a2.25,2.25,0,0,1-3.28-.7,27.91,27.91,0,0,1-4.8-15.11A1.89,1.89,0,0,1,59.11,62.8Z"/><path class="cls-6" d="M23.14,94.77h4.73a23.51,23.51,0,0,0,1.8-7c.14-1.47-.4-2.36-1.56-2.53a2.29,2.29,0,0,0-2.68,2.06A18.2,18.2,0,0,1,23.14,94.77Z"/><path class="cls-4" d="M115.25,20.48l-1.82-1.81a31.67,31.67,0,0,0-14-3.89,2,2,0,0,0-1.74.54,2.13,2.13,0,0,0-.49,2.25A1.87,1.87,0,0,0,99,19a38.58,38.58,0,0,1,5.36.73,28.9,28.9,0,0,1,7.64,3,2,2,0,0,0,3-.85A2.14,2.14,0,0,0,115.25,20.48Z"/></g></g></g></svg>