<svg xmlns="http://www.w3.org/2000/svg" viewBox="0 0 91.32 62.65"><defs><style>.cls-1{fill:#0c00fc;}.cls-2,.cls-3,.cls-4{fill:none;stroke-miterlimit:10;}.cls-2{stroke:#f90000;}.cls-3{stroke:#00f953;}.cls-4{stroke:#fff200;}</style></defs><title>Asset 8</title><g id="Layer_2" data-name="Layer 2"><g id="DATE"><path class="cls-1" d="M22.74,42,19.66,55.19h52L68.64,42Zm4.58,9.7a1.91,1.91,0,1,1,1.9-1.91A1.91,1.91,0,0,1,27.32,51.74Zm7.57-1.28a1.62,1.62,0,1,1,1.62-1.62A1.62,1.62,0,0,1,34.89,50.46Zm21.33,0a1.62,1.62,0,1,1,1.62-1.62A1.61,1.61,0,0,1,56.22,50.46Zm7.46,1.28a1.91,1.91,0,1,1,1.91-1.91A1.92,1.92,0,0,1,63.68,51.74Z"/><path class="cls-1" d="M83.22,38.62V9.5a2,2,0,0,0-2-2h-71a2,2,0,0,0-2,2V38.62l-.5.51V51.25l.5.43v1.48a2,2,0,0,0,2,2h8.3l3.25-13.87a.59.59,0,0,1,.58-.46H69.11a.59.59,0,0,1,.58.46l3.15,13.87h8.34a2,2,0,0,0,2-2V51.68l.51-.43V39.13ZM29.57,37a7.52,7.52,0,1,1,7.52-7.52A7.52,7.52,0,0,1,29.57,37Zm31.67,0a7.52,7.52,0,1,1,7.51-7.52A7.52,7.52,0,0,1,61.24,37Z"/><path class="cls-1" d="M32.67,28.58l-.47-1,.76-.35a4.08,4.08,0,0,0-2.51-1.78l-.08.86-1.1-.1.08-.86a4.1,4.1,0,0,0-2.79,1.28l.68.49-.65.89-.67-.48A4.27,4.27,0,0,0,25.47,29a4.05,4.05,0,0,0,.16,1.56l.72-.33.44,1-.7.32a4.08,4.08,0,0,0,2.51,1.78l.07-.75,1.1.1-.07.75a4.09,4.09,0,0,0,2.8-1.29l-.63-.44.62-.91.65.46a4.26,4.26,0,0,0,.44-1.51,4.05,4.05,0,0,0-.16-1.56Z"/><path class="cls-1" d="M64.31,26.85l-.56.6-.82-.73.57-.62a4,4,0,0,0-3-.67l.26.82-1.06.32-.25-.82A4.08,4.08,0,0,0,57.36,28l.82.18-.26,1.07-.8-.18A4.06,4.06,0,0,0,58,32l.53-.58.8.76-.52.56a4,4,0,0,0,3,.68l-.23-.72,1.06-.33.22.72A4.09,4.09,0,0,0,65,30.86l-.76-.17.23-1.08.77.17a4.14,4.14,0,0,0-.17-1.55A3.93,3.93,0,0,0,64.31,26.85Z"/><path class="cls-2" d="M17.4,58.39H73.89"/><path class="cls-2" d="M75.21,58.39h9.07a2.27,2.27,0,0,0,2.21-2.31V54.4l.55-.48V40.17l-.55-.58v-33a2.26,2.26,0,0,0-2.21-2.3H7.05a2.26,2.26,0,0,0-2.22,2.3v33l-.55.58V53.92l.55.48v1.68a2.27,2.27,0,0,0,2.22,2.31h9"/><path class="cls-3" d="M16.13,60.2h59"/><path class="cls-3" d="M76.53,60.2H86a2.39,2.39,0,0,0,2.31-2.46V56l.58-.52V40.76l-.58-.61V4.92A2.4,2.4,0,0,0,86,2.45H5.32A2.39,2.39,0,0,0,3,4.92V40.15l-.58.61V55.43L3,56v1.79A2.38,2.38,0,0,0,5.32,60.2h9.43"/><path class="cls-4" d="M14.82,62.15H76.47"/><path class="cls-4" d="M77.91,62.15h9.9a2.52,2.52,0,0,0,2.41-2.62V57.61l.6-.55V41.4l-.6-.66V3.13A2.53,2.53,0,0,0,87.81.5H3.52A2.53,2.53,0,0,0,1.1,3.13V40.74l-.6.66V57.06l.6.55v1.92a2.52,2.52,0,0,0,2.42,2.62h9.85"/></g></g></svg>