<svg xmlns="http://www.w3.org/2000/svg" viewBox="0 0 1483.51 149.66"><defs><style>.cls-3{fill:#282828}.cls-4{fill:none;stroke:#282828;stroke-width:2px}</style></defs><g style="isolation:isolate"><g id="Layer_2" data-name="Layer 2"><g style="mix-blend-mode:color-burn" id="Text"><path class="cls-3" d="M90.24 1c57.22 0 85.93 21.74 89.62 63.17h-37.53C138.84 41 121 32 90.24 32c-37.53 0-53.33 13.3-53.33 42.63 0 29.53 16 43.07 53.33 43.07 30.56 0 48.6-9.23 52.09-32.62h37.53c-3.69 41.64-32.4 63.58-89.62 63.58C27.07 148.66 0 122.41 0 74.63 0 27.05 27.07 1 90.24 1zM329.8 104l26.45 42.66h-43.47l-23.18-38.4h-59.47v38.35h-36.92V3.05H306c32.61 0 55 20.72 55 52.71 0 23.38-11.92 40.61-31.2 48.24zm-99.67-26.71h65.62c11.08 0 28.31 0 28.31-21.53C324.06 34 306.83 34 295.75 34h-65.62zM506 116.05h-85.94l-15.39 30.56h-40.6l74-143.56h49.84l74.24 143.56h-40.78zm-13.75-27.48l-29.13-58.24-29.32 58.24zM607.94 34v36.5h102.54v31.2H607.94v44.91H571V3.05h151.78V34zM909.23 34h-69.74v112.61h-36.91V34h-69.73V3h176.38z"/><path class="cls-4" d="M1002.77 1c57.21 0 85.93 21.74 89.62 63.17h-37.53C1051.37 41 1033.53 32 1002.77 32c-37.54 0-53.33 13.33-53.33 42.66 0 29.53 16 43.07 53.33 43.07 30.55 0 48.6-9.23 52.09-32.62h37.53c-3.69 41.64-32.41 63.58-89.62 63.58-63.17 0-90.24-26.25-90.24-74C912.53 27.05 939.6 1 1002.77 1zM1103.69 74.63c0-47.58 27.07-73.63 90.24-73.63 63 0 90.24 26.25 90.24 73.63 0 47.58-27.28 74-90.24 74-63.17.03-90.24-26.22-90.24-74zm143.56 0c0-29.13-14.77-42.66-53.32-42.66s-53.33 13.33-53.33 42.66c0 29.53 15 43.07 53.33 43.07s53.32-13.7 53.32-43.07zM1482.51 3.05v143.56h-50.25l-97.83-107.67v107.67h-36.91V3.05h50l98 107.88V3.05z"/></g></g></g></svg>